HIERARCHY
ROOT hip
{
	OFFSET 0.000000 0.000000 0.000000 
	CHANNELS 6 Xposition Yposition Zposition Xrotation Zrotation Yrotation
	JOINT abdomen
	{
		OFFSET 0.000000 3.402643 0.000000 
		CHANNELS 3 Xrotation Zrotation Yrotation
		JOINT chest
		{
			OFFSET 0.000000 8.438565 -0.680529 
			CHANNELS 3 Xrotation Zrotation Yrotation
			JOINT neck
			{
				OFFSET 0.000000 10.207942 -0.272212 
				CHANNELS 3 Xrotation Zrotation Yrotation
				JOINT head
				{
					OFFSET 0.000000 3.130431 0.000000 
					CHANNELS 3 Xrotation Zrotation Yrotation
					End Site
					{
						OFFSET 0.000000 3.130435 0.000000 
					}
				}
			}
			JOINT lCollar
			{
				OFFSET 3.470700 6.669187 -0.816635 
				CHANNELS 3 Yrotation Zrotation Xrotation
				JOINT lShldr
				{
					OFFSET 3.198488 0.000000 0.000000 
					CHANNELS 3 Zrotation Yrotation Xrotation
					JOINT lForeArm
					{
						OFFSET 10.139888 0.000000 0.000000 
						CHANNELS 3 Yrotation Zrotation Xrotation
						JOINT lHand
						{
							OFFSET 8.370511 0.000000 0.000000 
							CHANNELS 3 Zrotation Yrotation Xrotation
							End Site
							{
								OFFSET 4.083176 0.000000 0.000000 
							}
						}
					}
				}
			}
			JOINT rCollar
			{
				OFFSET -3.470700 6.669187 -0.816635 
				CHANNELS 3 Yrotation Zrotation Xrotation
				JOINT rShldr
				{
					OFFSET -3.198488 0.000000 0.000000 
					CHANNELS 3 Zrotation Yrotation Xrotation
					JOINT rForeArm
					{
						OFFSET -10.139888 0.000000 0.000000 
						CHANNELS 3 Yrotation Zrotation Xrotation
						JOINT rHand
						{
							OFFSET -8.370511 0.000000 0.000000 
							CHANNELS 3 Zrotation Yrotation Xrotation
							End Site
							{
								OFFSET -4.083176 0.000000 0.000000 
							}
						}
					}
				}
			}
		}
	}
	JOINT lThigh
	{
		OFFSET 5.308129 -1.633274 1.361059 
		CHANNELS 3 Xrotation Zrotation Yrotation
		JOINT lShin
		{
			OFFSET -2.041588 -20.007561 0.000000 
			CHANNELS 3 Xrotation Zrotation Yrotation
			JOINT lFoot
			{
				OFFSET 0.000000 -19.190928 -1.224953 
				CHANNELS 3 Xrotation Yrotation Zrotation
				End Site
				{
					OFFSET 0.000000 -2.449906 4.627600 
				}
			}
		}
	}
	JOINT rThigh
	{
		OFFSET -5.308129 -1.633274 1.361059 
		CHANNELS 3 Xrotation Zrotation Yrotation
		JOINT rShin
		{
			OFFSET 2.041588 -20.007561 0.000000 
			CHANNELS 3 Xrotation Zrotation Yrotation
			JOINT rFoot
			{
				OFFSET 0.000000 -19.190928 -1.224953 
				CHANNELS 3 Xrotation Yrotation Zrotation
				End Site
				{
					OFFSET 0.000000 -2.449906 4.627600 
				}
			}
		}
	}
}
MOTION
Frames: 9
Frame Time: 0.016667
-0.061258 7.465887 -1.569287 89.158501 2.354210 3.527700 -23.573000 -0.133834 2.782320 27.061701 -1.096410 1.202950 18.005800 -29.001600 24.923201 19.143499 -3.528610 13.387100 2.000000 -2.000000 0.000000 -1.173430 -33.610001 115.242996 122.753998 -0.135595 0.132992 0.077553 -0.092789 -168.084000 -2.000000 2.000000 0.000000 -1.594610 11.297200 113.595001 -129.335999 0.134376 0.088436 179.908005 179.897003 2.961150 -37.349007 1.557089 9.504215 51.813396 4.466334 2.950690 -13.711772 14.641021 5.248030 -34.260025 -4.260900 -15.893159 44.380695 -5.942507 -2.617036 -20.198259 -21.992060 -8.429862 
-0.057592 7.466449 -1.559649 88.991501 2.017990 3.507720 -23.566299 -0.059196 2.536830 26.974100 -1.203350 1.104720 17.748800 -29.155100 25.163099 19.026501 -3.558600 13.464800 2.000000 -2.000000 0.000000 -1.260980 -33.190102 115.241997 122.774002 -0.135553 0.132964 0.077568 -0.092813 -168.093994 -2.000000 2.000000 0.000000 -1.740850 11.746300 113.664001 -129.248001 0.134527 0.088559 179.908005 179.897003 3.029510 -37.256252 1.888883 9.344186 51.921608 4.460229 2.947772 -14.047918 14.569104 5.315270 -34.064941 -3.953403 -16.285105 44.272163 -5.942724 -2.615564 -21.134109 -22.501406 -9.001471 
-0.049331 7.468471 -1.563041 89.000198 2.130690 3.516700 -23.556400 -0.064787 2.549730 26.983700 -1.154810 1.109990 17.464300 -29.137800 25.190201 18.870300 -3.589180 13.447500 2.000000 -2.000000 0.000000 -1.192610 -33.229198 115.223000 122.735001 -0.135637 0.133019 0.077497 -0.092696 -168.044998 -2.000000 2.000000 0.000000 -1.828790 11.726800 113.644997 -129.199005 0.134610 0.088628 179.908005 179.897003 3.019740 -37.267719 1.785635 9.439470 51.961109 4.462088 2.958245 -14.201890 14.577425 5.365983 -34.058941 -4.086030 -16.370050 44.252499 -5.945879 -2.626207 -22.238907 -22.797459 -9.594555 
-0.051632 7.459032 -1.574005 89.065102 2.170600 3.498190 -23.546400 -0.079332 2.566520 27.032499 -1.144990 1.119870 17.127701 -29.078800 25.257700 18.674900 -3.610880 13.454800 2.000000 -2.000000 0.000000 -1.320090 -33.258301 115.417999 122.774002 -0.135553 0.132964 0.076753 -0.081686 -167.526993 -2.000000 2.000000 0.000000 -1.946160 11.658500 113.566002 -129.169998 0.134661 0.088669 179.908005 179.895996 2.853730 -37.349300 1.785313 9.540031 52.001617 4.447060 2.960920 -14.108037 14.626228 5.365648 -34.082962 -4.105640 -16.413349 44.211926 -5.952577 -2.618583 -23.454025 -23.111982 -10.240199 
-0.054490 7.443083 -1.580027 89.242203 2.083310 3.541120 -23.566000 -0.070247 2.562920 27.169399 -1.173780 1.104000 16.991899 -29.143801 25.310400 18.636499 -3.658680 13.454700 2.000000 -2.000000 0.000000 -1.516180 -33.316601 115.702003 122.832001 -0.135427 0.132883 0.075422 -0.079392 -166.580002 -2.000000 2.000000 0.000000 -2.151570 11.531700 113.430000 -129.141006 0.134711 0.088710 179.906998 179.895004 2.433810 -37.572540 1.850413 9.496687 52.032520 4.428813 2.962703 -13.992149 14.660924 5.376810 -34.195156 -4.076742 -16.740093 44.122955 -5.950571 -2.606842 -25.443823 -23.910671 -11.480737 
-0.052196 7.435668 -1.579499 89.467598 1.777460 3.614950 -23.585899 -0.026693 2.512350 27.345501 -1.280030 1.087690 17.101999 -29.132099 25.329599 18.684900 -3.620190 13.481000 2.000000 -2.000000 0.000000 -1.408750 -33.375198 115.681999 122.753998 -0.135595 0.132992 0.074790 -0.078272 -166.121002 -2.000000 2.000000 0.000000 -2.269140 11.463500 113.264000 -129.169998 0.134661 0.088669 179.906006 179.895004 2.052950 -37.862198 2.078675 9.287906 52.062115 4.425617 2.961232 -14.137928 14.651886 5.416747 -34.339211 -3.842346 -17.057158 44.007671 -5.925518 -2.604903 -25.376158 -23.989990 -11.515423 
-0.046825 7.441510 -1.560626 89.724899 1.805340 3.696890 -23.634899 -0.029809 2.503920 27.433201 -1.231320 1.091580 17.063900 -29.174299 25.347900 18.665600 -3.639360 13.487100 2.000000 -2.000000 0.000000 -1.271890 -33.384998 115.623001 122.705002 -0.135700 0.133059 0.074843 -0.078368 -166.160004 -2.000000 2.000000 0.000000 -2.288770 11.414700 113.223999 -129.218994 0.134577 0.088600 179.906006 179.895004 2.043180 -38.122395 1.955607 9.210647 51.975037 4.413190 2.965029 -15.135419 14.653380 5.693922 -34.605927 -3.923843 -17.017576 43.979721 -5.913894 -2.609605 -25.477312 -24.060081 -11.613111 
-0.040746 7.449150 -1.549291 89.866898 2.046460 3.806440 -23.674601 -0.105870 2.495350 27.433001 -1.153750 1.071640 17.059601 -29.218100 25.388700 18.675301 -3.639220 13.506000 2.000000 -2.000000 0.000000 -1.203520 -33.336201 115.633003 122.705002 -0.135700 0.133059 0.074964 -0.078583 -166.248001 -2.000000 2.000000 0.000000 -2.259260 11.404800 113.321999 -129.209000 0.134594 0.088614 179.906998 179.895004 2.277560 -38.218803 1.647985 9.290051 51.808346 4.407485 2.952685 -15.659961 14.686370 5.850616 -34.795689 -4.255346 -16.963280 44.059547 -5.905387 -2.607279 -25.503014 -23.987282 -11.629068 
-0.039097 7.451058 -1.555605 89.926598 2.108100 3.846490 -23.684999 -0.119507 2.458930 27.433001 -1.114970 1.056790 17.173401 -29.229900 25.448900 18.752899 -3.590870 13.533000 2.000000 -2.000000 0.000000 -1.252360 -33.267799 115.662003 122.714996 -0.135679 0.133046 0.074977 -0.078606 -166.257996 -2.000000 2.000000 0.000000 -2.298170 11.492700 113.380997 -129.141006 0.134711 0.088710 179.906998 179.895004 2.404510 -38.258457 1.577031 9.359643 51.720600 4.399550 2.948948 -15.596225 14.821642 5.894428 -34.888519 -4.356329 -16.961483 44.122734 -5.871382 -2.605381 -25.638916 -23.910181 -11.649319 
